<svg xmlns="http://www.w3.org/2000/svg" width="33" height="33" viewBox="0 0 33 33">
  <g id="Grupo_1481" data-name="Grupo 1481" transform="translate(-3612 -939)">
    <rect id="Rectángulo_550" data-name="Rectángulo 550" width="33" height="33" transform="translate(3612 939)" fill="none"/>
    <g id="Iconos_para_pagina_web_edesur_Puntos_de_Pago" data-name="Iconos para pagina web edesur_Puntos de Pago" transform="translate(3603.506 930.485)">
      <g id="Grupo_1449" data-name="Grupo 1449">
        <g id="Grupo_1446" data-name="Grupo 1446">
          <path id="Trazado_782" data-name="Trazado 782" d="M26.12,9a13.274,13.274,0,0,1,2.25.49c4.18,1.49,6.8,4.34,7.42,8.8a12.2,12.2,0,0,1-1.68,7.7,33,33,0,0,1-2.85,3.9c-.48.63-.98,1.24-1.47,1.87-.21.27-.2.27.14.34a14.209,14.209,0,0,1,4.05,1.4,5.946,5.946,0,0,1,1.36,1.03,2.409,2.409,0,0,1,0,3.57,7.486,7.486,0,0,1-3.01,1.78,19.78,19.78,0,0,1-5.49,1.06,25.168,25.168,0,0,1-7.29-.51,12.681,12.681,0,0,1-3.72-1.4,4.813,4.813,0,0,1-1.4-1.18,2.375,2.375,0,0,1,.15-3.26,7.438,7.438,0,0,1,2.87-1.77,16.876,16.876,0,0,1,2.61-.74c.35-.07.35-.07.12-.36-1.07-1.36-2.14-2.71-3.2-4.08a13.517,13.517,0,0,1-2.8-6.72,10.4,10.4,0,0,1,5.26-10.48,10.912,10.912,0,0,1,4.3-1.41.284.284,0,0,0,.12-.04h2.25ZM15.07,19.73a9.979,9.979,0,0,0,.1,1.49,12.445,12.445,0,0,0,2.5,5.75c2.36,3.05,4.76,6.07,7.14,9.11.17.21.25.16.39-.02.78-1.01,1.58-2.01,2.37-3.02,1.64-2.09,3.32-4.14,4.9-6.27a11.456,11.456,0,0,0,2.38-8.47,8.919,8.919,0,0,0-2.75-5.5,9.888,9.888,0,0,0-8.98-2.72,9.664,9.664,0,0,0-8.04,9.64Zm9.99,20.35a29.144,29.144,0,0,0,3.9-.32,14.733,14.733,0,0,0,4.34-1.32,4.5,4.5,0,0,0,1.46-1.1,1.464,1.464,0,0,0-.01-2.06,4.931,4.931,0,0,0-1.42-1.06,14.233,14.233,0,0,0-4.12-1.3c-.23-.04-.018.187-.158.377-1.03,1.33-2.422,2.463-3.462,3.793-.5.63-.71.63-1.21,0-1.04-1.33-2.08-2.65-3.12-3.98-.11-.14-.2-.24-.41-.2a18.39,18.39,0,0,0-2.81.72,6.925,6.925,0,0,0-2.64,1.49,1.509,1.509,0,0,0,0,2.42,6.426,6.426,0,0,0,2.32,1.37,21.459,21.459,0,0,0,7.33,1.18Z" fill="#002e5f"/>
          <path id="Trazado_783" data-name="Trazado 783" d="M24.9,41.38a24.123,24.123,0,0,1-5.41-.58,12.661,12.661,0,0,1-3.83-1.44,5.423,5.423,0,0,1-1.51-1.27,2.739,2.739,0,0,1,.17-3.74,7.676,7.676,0,0,1,3.01-1.86,15.387,15.387,0,0,1,2.43-.7l-.87-1.11c-.73-.93-1.46-1.85-2.18-2.79a13.893,13.893,0,0,1-2.87-6.9,10.8,10.8,0,0,1,5.44-10.85,11.412,11.412,0,0,1,4.44-1.46l.16-.04,2.58.05a11.622,11.622,0,0,1,2.05.46c4.47,1.6,7.04,4.66,7.66,9.1a12.374,12.374,0,0,1-1.73,7.93,21.251,21.251,0,0,1-2.12,2.97c-.26.32-.52.65-.77.97-.31.41-.64.81-.96,1.22l-.35.44a14.236,14.236,0,0,1,3.92,1.39,6.289,6.289,0,0,1,1.45,1.1,2.786,2.786,0,0,1,0,4.08,8.1,8.1,0,0,1-3.15,1.88,20.391,20.391,0,0,1-5.59,1.09c-.68.04-1.34.07-1.98.07Zm-.95-32a.612.612,0,0,1-.14.03,10.644,10.644,0,0,0-4.15,1.36,10.062,10.062,0,0,0-5.08,10.12,13.183,13.183,0,0,0,2.72,6.53c.72.93,1.45,1.86,2.18,2.78l1.02,1.29c.16.21.3.38.21.62s-.31.29-.55.34a15.358,15.358,0,0,0-2.56.72,7.01,7.01,0,0,0-2.73,1.67,1.992,1.992,0,0,0-.13,2.78,4.392,4.392,0,0,0,1.3,1.08,11.809,11.809,0,0,0,3.62,1.35,24.875,24.875,0,0,0,7.18.5,19.616,19.616,0,0,0,5.39-1.04,7.1,7.1,0,0,0,2.86-1.69,2.053,2.053,0,0,0,0-3.05,4.991,4.991,0,0,0-1.27-.96,13.5,13.5,0,0,0-3.95-1.36c-.25-.05-.47-.1-.56-.34s.06-.42.19-.6l.51-.65c.32-.4.64-.8.95-1.21.25-.33.52-.66.78-.99a23.346,23.346,0,0,0,2.05-2.87,11.675,11.675,0,0,0,1.64-7.46c-.58-4.14-2.99-7-7.17-8.5a10.542,10.542,0,0,0-1.92-.43l-.24-.04H23.95Zm1.12,31.07h0a22.347,22.347,0,0,1-7.46-1.2,6.829,6.829,0,0,1-2.45-1.45,2.108,2.108,0,0,1-.71-1.48,2.046,2.046,0,0,1,.72-1.47,7.367,7.367,0,0,1,2.78-1.57,18.068,18.068,0,0,1,2.86-.73.738.738,0,0,1,.77.34l3.12,3.98c.23.29.31.33.33.34-.02,0,.07-.05.29-.33l.98-1.25c.71-.91,1.43-1.82,2.14-2.73a.821.821,0,0,1,.86-.33,14.259,14.259,0,0,1,4.22,1.34,4.9,4.9,0,0,1,1.52,1.15,1.839,1.839,0,0,1,.02,2.55,5.069,5.069,0,0,1-1.58,1.19,14.629,14.629,0,0,1-4.45,1.36,29.081,29.081,0,0,1-3.95.32h0Zm-4.16-7.2a19.825,19.825,0,0,0-2.72.72,6.839,6.839,0,0,0-2.51,1.4,1.357,1.357,0,0,0-.49.94,1.439,1.439,0,0,0,.49.95,6.135,6.135,0,0,0,2.19,1.29,21.085,21.085,0,0,0,7.19,1.15,28.818,28.818,0,0,0,3.84-.31,14.115,14.115,0,0,0,4.23-1.29,4.249,4.249,0,0,0,1.35-1.01,1.09,1.09,0,0,0,0-1.57,4.177,4.177,0,0,0-1.31-.97,13.822,13.822,0,0,0-4.01-1.27l-.43-.18.3.23c-.71.91-1.43,1.82-2.14,2.73l-.98,1.25a1.26,1.26,0,0,1-.9.62h0a1.237,1.237,0,0,1-.9-.63l-3.12-3.98a.437.437,0,0,0-.07-.08ZM25,36.6a.7.7,0,0,1-.49-.28c-.89-1.14-1.78-2.27-2.67-3.41-1.49-1.9-2.99-3.8-4.47-5.71a12.84,12.84,0,0,1-2.57-5.92,8.844,8.844,0,0,1-.1-1.55A10.062,10.062,0,0,1,23.05,9.72a10.248,10.248,0,0,1,9.31,2.81,9.276,9.276,0,0,1,2.86,5.73,11.834,11.834,0,0,1-2.45,8.73c-1.11,1.49-2.28,2.97-3.41,4.39-.5.63-1,1.26-1.49,1.89l-.81,1.03c-.52.66-1.04,1.32-1.56,1.99a.641.641,0,0,1-.5.3h0Zm.13-26.32a10.97,10.97,0,0,0-1.95.18,9.3,9.3,0,0,0-7.73,9.27h0a8.569,8.569,0,0,0,.1,1.44,12.143,12.143,0,0,0,2.42,5.58q2.22,2.865,4.47,5.71c.86,1.09,1.71,2.18,2.57,3.27.51-.65.99-1.26,1.47-1.87l.81-1.03,1.5-1.89c1.13-1.42,2.3-2.89,3.4-4.37a11.152,11.152,0,0,0,2.31-8.2,8.535,8.535,0,0,0-2.64-5.28,9.473,9.473,0,0,0-6.7-2.8Z" fill="#002e5f"/>
        </g>
        <g id="Grupo_1447" data-name="Grupo 1447">
          <path id="Trazado_784" data-name="Trazado 784" d="M25,27.68a7.5,7.5,0,1,0-.01,0Zm0-.96a6.535,6.535,0,1,1,.01,0Z" fill="#002e5f"/>
          <path id="Trazado_785" data-name="Trazado 785" d="M24.99,28.06a7.9,7.9,0,0,1-7.86-7.86,7.891,7.891,0,0,1,2.34-5.62,7.716,7.716,0,0,1,5.54-2.28,7.855,7.855,0,0,1,7.87,7.85A7.748,7.748,0,0,1,30.6,25.7,7.879,7.879,0,0,1,25,28.05h-.01Zm-.05-15a6.979,6.979,0,0,0-4.95,2.06,7.1,7.1,0,0,0-.02,10.1,7.046,7.046,0,0,0,5.01,2.09h.01a7.125,7.125,0,1,0-.01-14.25h-.05Zm.07,14.04h-.02A6.92,6.92,0,0,1,25,13.26h.02a6.852,6.852,0,0,1,4.88,2.02,6.973,6.973,0,0,1,2.02,4.99,6.887,6.887,0,0,1-6.91,6.82Zm0-13.09A6.17,6.17,0,1,0,25,26.35h.02a6.146,6.146,0,0,0,6.16-6.08,6.265,6.265,0,0,0-1.8-4.46,6.069,6.069,0,0,0-4.35-1.8h-.02Z" fill="#002e5f"/>
        </g>
        <g id="Grupo_1448" data-name="Grupo 1448" transform="translate(21.754 16.922)">
          <path id="Trazado_786" data-name="Trazado 786" d="M23.944,22.3H21.795a1.854,1.854,0,0,1-.352-.022.666.666,0,0,1-.644-.719c0-1.468-.007-2.928,0-4.4a1.185,1.185,0,0,1,1.213-1.191h2.711a.865.865,0,0,1,.914.929c0,.172.007.345,0,.517s.045.262.232.247a4.317,4.317,0,0,1,.539,0,.655.655,0,0,1,.667.652c.015,1.108.015,2.209,0,3.318a.633.633,0,0,1-.614.644c-.554.06-1.108.015-1.655.022h-.861Zm0-.712h2.172c.082,0,.195.037.225-.067a.9.9,0,0,0,0-.487c-.037-.127-.172-.082-.262-.1a.982.982,0,0,1-.884-1,.959.959,0,0,1,.966-.914c.06,0,.15.015.172-.052a.723.723,0,0,0,0-.5c-.045-.135-.187-.082-.292-.082H22.274a2.1,2.1,0,0,1-.532-.045c-.2-.045-.247.015-.24.2v2.809c0,.195.067.255.255.255.726-.007,1.453,0,2.172,0Zm-.562-3.932h1.356c.157,0,.232-.052.217-.217s0-.33,0-.487-.075-.27-.247-.27H21.975a.421.421,0,0,0-.427.33.482.482,0,0,0,.487.629c.449.007.906,0,1.356,0Zm2.988,2.292c-.03-.082.052-.255-.157-.24-.157.015-.292.075-.292.262s.12.24.277.255c.2.015.165-.135.172-.277Z" transform="translate(-20.706 -15.88)" fill="#ff6b0a"/>
          <path id="Trazado_787" data-name="Trazado 787" d="M25.734,22.366H21.765a2.723,2.723,0,0,1-.359-.022.762.762,0,0,1-.726-.816c0-1.356-.007-2.891,0-4.4A1.273,1.273,0,0,1,21.99,15.85H24.7a.961.961,0,0,1,1.011,1.019v.517c0,.09.007.12.022.127a.155.155,0,0,0,.112.015,4.438,4.438,0,0,1,.547,0,.746.746,0,0,1,.756.741c.015,1.086.015,2.2,0,3.318a.723.723,0,0,1-.7.734c-.24.022-.472.03-.711.03Zm-.779-.195h.389a8.685,8.685,0,0,0,1.078-.03.543.543,0,0,0,.532-.554c.015-1.116.015-2.232,0-3.318a.563.563,0,0,0-.577-.554c-.172,0-.352-.015-.524,0a.317.317,0,0,1-.262-.075.352.352,0,0,1-.075-.277c.007-.127,0-.255,0-.374v-.135a.773.773,0,0,0-.824-.831H21.982a1.092,1.092,0,0,0-1.123,1.093c-.007,1.505,0,3.041,0,4.389a.573.573,0,0,0,.562.629,2.386,2.386,0,0,0,.337.022h3.19Zm1.236-.517H21.735a.372.372,0,0,1-.27-.082.355.355,0,0,1-.082-.262v-2.8a.324.324,0,0,1,.09-.27.34.34,0,0,1,.27-.03,2.4,2.4,0,0,0,.517.037h3.82c.09-.007.262-.022.315.15a.9.9,0,0,1-.007.562c-.037.112-.157.112-.217.112h-.037a.87.87,0,0,0-.884.824.892.892,0,0,0,.809.906h.06a.243.243,0,0,1,.277.165,1.014,1.014,0,0,1,0,.539.2.2,0,0,1-.217.142Zm-.1-.195h.135a.717.717,0,0,0,0-.434c0-.015,0-.022-.1-.022h-.09a1.084,1.084,0,0,1-.966-1.1,1.055,1.055,0,0,1,1.056-1h.1a.755.755,0,0,0-.007-.427c0-.022-.007-.03-.12-.022H22.267a2.371,2.371,0,0,1-.554-.045c-.09-.022-.112-.007-.112-.007s-.015.015-.015.12v2.809a.2.2,0,0,0,.03.135.234.234,0,0,0,.135.03H26.1Zm.1-1.168h-.03c-.307-.022-.359-.225-.359-.345s.045-.337.374-.36a.227.227,0,0,1,.195.052.268.268,0,0,1,.06.2v.142a.307.307,0,0,1-.075.247.233.233,0,0,1-.165.06Zm.015-.524h-.022c-.187.015-.2.1-.2.172s.037.15.187.165h.06c.015-.007.015-.075.015-.112v-.217h-.03Zm-1.49-2.045H22a.621.621,0,0,1-.5-.247.566.566,0,0,1-.075-.5.519.519,0,0,1,.517-.4h2.726a.323.323,0,0,1,.247.09.366.366,0,0,1,.09.27v.479a.309.309,0,0,1-.067.232.335.335,0,0,1-.24.082Zm-.6-.195h.592a.18.18,0,0,0,.112-.022c.015-.015.015-.045.015-.1v-.494a.193.193,0,0,0-.037-.135.163.163,0,0,0-.12-.037H21.96a.343.343,0,0,0-.345.262.38.38,0,0,0,.045.337.426.426,0,0,0,.352.172h2.127Z" transform="translate(-20.676 -15.85)" fill="none"/>
        </g>
        <path id="Trazado_788" data-name="Trazado 788" d="M22.959,22.052a3.917,3.917,0,0,1,.419,0,.337.337,0,0,1,.322.36.319.319,0,0,1-.33.33,7.835,7.835,0,0,1-.839,0,.328.328,0,0,1-.322-.337.333.333,0,0,1,.307-.352,4.256,4.256,0,0,1,.442-.022v.015Z" transform="translate(0.693 -0.479)" fill="#ff6b0a"/>
      </g>
    </g>
  </g>
</svg>
